<?xml version="1.0" encoding="UTF-8" standalone="no"?>
<svg
   width="1023.9999"
   height="1023.9999"
   viewBox="0 0 270.93333 270.93333"
   version="1.1"
   id="svg1"
   xml:space="preserve"
   xmlns:xlink="http://www.w3.org/1999/xlink"
   xmlns="http://www.w3.org/2000/svg"
   xmlns:svg="http://www.w3.org/2000/svg"><defs
     id="defs1"><linearGradient
       id="linearGradient13"><stop
         style="stop-color:#262b2f;stop-opacity:1;"
         offset="0"
         id="stop13" /><stop
         style="stop-color:#1a2126;stop-opacity:1;"
         offset="1"
         id="stop14" /></linearGradient><linearGradient
       id="linearGradient10"><stop
         style="stop-color:#20262b;stop-opacity:1;"
         offset="0"
         id="stop10" /><stop
         style="stop-color:#101d27;stop-opacity:1;"
         offset="1"
         id="stop11" /></linearGradient><linearGradient
       id="linearGradient8"><stop
         style="stop-color:#171e24;stop-opacity:1;"
         offset="0"
         id="stop8" /><stop
         style="stop-color:#101e29;stop-opacity:1;"
         offset="1"
         id="stop9" /></linearGradient><linearGradient
       id="linearGradient6"><stop
         style="stop-color:#101d26;stop-opacity:1;"
         offset="0"
         id="stop6" /><stop
         style="stop-color:#0e212f;stop-opacity:1;"
         offset="1"
         id="stop7" /></linearGradient><linearGradient
       xlink:href="#linearGradient6"
       id="linearGradient7"
       x1="169.08667"
       y1="66.270256"
       x2="217.56662"
       y2="17.790302"
       gradientUnits="userSpaceOnUse" /><linearGradient
       xlink:href="#linearGradient8"
       id="linearGradient9"
       x1="133.33182"
       y1="154.1188"
       x2="185.28178"
       y2="102.16882"
       gradientUnits="userSpaceOnUse" /><linearGradient
       xlink:href="#linearGradient10"
       id="linearGradient11"
       x1="104.37844"
       y1="243.68509"
       x2="198.14392"
       y2="149.91962"
       gradientUnits="userSpaceOnUse" /><linearGradient
       xlink:href="#linearGradient13"
       id="linearGradient14"
       x1="55.084248"
       y1="249.39648"
       x2="111.85724"
       y2="192.6235"
       gradientUnits="userSpaceOnUse" /></defs><path
     style="display:inline;fill:url(#linearGradient14);fill-opacity:1;fill-rule:evenodd;stroke:none;stroke-width:2.91287"
     d="m 112.00687,217.77919 c 0,0 16.60642,7.5334 10.09488,22.29285 -5.58796,10.75045 -16.40418,7.99177 -16.40418,7.99177 L 50.315971,225.91118 c 0,0 -2.482761,-1.0597 -4.443356,-3.34723 -2.493345,-2.77231 -2.546438,-6.27819 -2.546438,-6.27819 l 0.0077,-16.55918 c 0,0 0.25052,-3.21263 3.17518,-5.14586 2.949446,-1.68541 7.05431,-0.59485 7.05431,-0.59485 z"
     id="element0" /><path
     d="m 178.69312,130.42802 c -20.82135,-0.39109 -41.19717,15.97056 -40.04703,40.03134 l -31.34523,38.8582 c 18.14279,2.47853 30.31208,17.52993 21.18133,35.44956 -8.4289,12.36628 -27.19924,12.9412 -32.949426,-0.8394 l -10.573785,-4.41687 c 2.181105,13.43361 11.915772,24.58913 29.961661,23.61317 19.79233,-2.31693 25.79064,-19.95111 26.13764,-26.74227 l 36.23166,-25.49296 c 35.14901,-0.57929 51.78903,-39.72792 31.45906,-64.75479 -8.12101,-10.69951 -19.14946,-15.50112 -30.05588,-15.70598 z m -0.92969,14.02325 a 26.288733,26.288733 0 0 1 26.28917,26.2884 26.288733,26.288733 0 0 1 -26.28917,26.28919 26.288733,26.288733 0 0 1 -26.28841,-26.28919 26.288733,26.288733 0 0 1 26.28841,-26.2884 z"
     style="display:inline;fill:url(#linearGradient11);fill-opacity:1;fill-rule:evenodd;stroke:none;stroke-width:2.91287"
     id="element1" /><rect
     style="display:inline;fill:url(#linearGradient7);fill-opacity:1;fill-rule:evenodd;stroke:none;stroke-width:2.90693"
     id="element4"
     width="68.561012"
     height="68.561012"
     x="159.04614"
     y="7.7497697"
     ry="11.336701" /><path
     d="m 135.4628,90.033131 c -7.14105,0 -12.89018,5.748336 -12.89018,12.889399 v 52.17476 c 0,4.78343 2.58686,8.93254 6.43645,11.1572 1.3556,-17.34067 11.67809,-31.40552 25.69949,-39.57667 15.38604,-8.73885 31.98086,-6.85707 41.23743,-3.01839 l 0.095,0.0503 v -20.78715 c 0,-7.141055 -5.74913,-12.889393 -12.89018,-12.889393 z"
     style="display:inline;fill:url(#linearGradient9);fill-opacity:1;fill-rule:evenodd;stroke:none;stroke-width:3.2087"
     id="element2" /><rect
     style="display:inline;fill:#39c5bb;fill-opacity:1;fill-rule:evenodd;stroke-width:1.97955"
     id="element3"
     width="46.688786"
     height="46.688786"
     x="63.929398"
     y="66.979912"
     ry="12.066494" /></svg>
